<?xml version="1.0" encoding="UTF-8"?><svg id="Layer_1" xmlns="http://www.w3.org/2000/svg" viewBox="0 0 500 295.32"><defs><style>.cls-1{fill:#f7bfd9;}.cls-2{fill:#00a5b1;}.cls-3{fill:#e6007e;}.cls-4{fill:#c6e0e4;}.cls-5{fill:none;stroke:#1d1d1b;stroke-linecap:round;stroke-linejoin:round;stroke-width:6px;}</style></defs><path class="cls-4" d="M371.4,235.8h118.85c-4.45-56.14-48.7-100.27-102.78-100.27-29.7,0-56.42,13.31-75.25,34.63"/><path class="cls-5" d="M371.4,235.8h118.85c-4.45-56.14-48.7-100.27-102.78-100.27-29.7,0-56.42,13.31-75.25,34.63"/><path class="cls-4" d="M126.68,237.22H7.83c4.45-56.13,48.7-100.27,102.78-100.27,29.7,0,56.42,13.31,75.25,34.63"/><path class="cls-5" d="M126.68,237.22H7.83c4.45-56.13,48.7-100.27,102.78-100.27,29.7,0,56.42,13.31,75.25,34.63"/><path class="cls-2" d="M381.03,285.52c-5.62-69.99-61.97-125-130.79-125s-125.13,55.01-130.75,125H381.03Z"/><path class="cls-5" d="M381.03,285.52c-5.62-69.99-61.97-125-130.79-125s-125.13,55.01-130.75,125H381.03Z"/><path class="cls-3" d="M307.04,66.73c0,31.11-25.18,56.3-56.28,56.3s-56.31-25.19-56.31-56.3,25.21-56.29,56.31-56.29,56.28,25.21,56.28,56.29"/><path class="cls-5" d="M307.04,66.73c0,31.11-25.18,56.3-56.28,56.3s-56.31-25.19-56.31-56.3,25.21-56.29,56.31-56.29,56.28,25.21,56.28,56.29Z"/><path class="cls-1" d="M433.2,60.2c0,21-17.02,38.03-38.02,38.03s-38.04-17.03-38.04-38.03,17.03-38.02,38.04-38.02,38.02,17.02,38.02,38.02"/><path class="cls-5" d="M433.2,60.2c0,21-17.02,38.03-38.02,38.03s-38.04-17.03-38.04-38.03,17.03-38.02,38.04-38.02,38.02,17.02,38.02,38.02Z"/><path class="cls-1" d="M64.88,61.63c0,21,17.03,38.02,38.02,38.02s38.03-17.02,38.03-38.02-17.02-38.02-38.03-38.02-38.02,17.02-38.02,38.02"/><path class="cls-5" d="M64.88,61.63c0,21,17.03,38.02,38.02,38.02s38.03-17.02,38.03-38.02-17.02-38.02-38.03-38.02-38.02,17.02-38.02,38.02Z"/><path class="cls-5" d="M227,80.57s23.05,32.26,48.99,0"/></svg>