<?xml version="1.0" encoding="UTF-8"?><svg id="Layer_1" xmlns="http://www.w3.org/2000/svg" viewBox="0 0 402.6 500"><defs><style>.cls-1{fill:#00a5b1;}.cls-2{fill:#e6007e;}.cls-3{fill:#cee4e8;}.cls-4{fill:#1d1d1b;}</style></defs><path class="cls-1" d="M320.74,153.4c-17.96-3.4-33.14,9.4-48.77,19.57,2.68-4.89,5.16-9.74,7.45-14.6,.92-1.99,1.84-3.97,2.68-5.97,.42-.99,.84-1.98,1.23-2.98,.38-.95,.76-1.87,1.15-2.83,.38-1.03,.76-2.02,1.11-3.05,.38-1,.72-1.95,1.03-2.9,.35-.95,.65-1.92,.95-2.9,.31-.89,.54-1.76,.8-2.6,.27-1.03,.57-2.06,.84-3.1,11.24,6.08,21.78,13.23,31.53,21.37"/><path class="cls-1" d="M203.06,157.3c-.23,.03-.46,.08-.73,.08-1.26,.12-2.48,.15-3.74,.15s-2.49-.03-3.75-.15c-.23,0-.46-.04-.72-.08-.35,0-.73-.08-1.07-.12-.46-.03-.95-.12-1.45-.19-5.66-.88-10.97-2.75-15.75-5.5-.57-.35-1.19-.69-1.76-1.04-.03-.04-.08-.08-.12-.08-.53-.38-1.11-.76-1.64-1.15-.58-.38-1.15-.8-1.68-1.23-.57-.42-1.11-.87-1.64-1.34-.54-.42-1.07-.91-1.57-1.38-.5-.46-1-.95-1.49-1.45-.49-.5-1-1.03-1.45-1.53-.91-1.03-1.8-2.1-2.64-3.21-1.26-1.68-2.41-3.48-3.4-5.35-.35-.61-.69-1.23-1-1.87-.31-.61-.61-1.27-.87-1.92-.27-.65-.54-1.3-.8-1.98-.27-.69-.54-1.41-.76-2.14-.19-.65-.38-1.26-.58-1.92-.38-1.37-.68-2.78-.95-4.24-.23-1.42-.42-2.87-.53-4.36,14.91-3.82,30.58-5.85,46.71-5.85s30.31,1.91,44.64,5.35c-.12,1.49-.27,2.94-.5,4.4-.38,2.18-.88,4.32-1.53,6.34-3.1,9.63-9.21,17.85-17.24,23.55-.58,.42-1.15,.8-1.76,1.19-.58,.38-1.15,.72-1.72,1.07-1.26,.72-2.52,1.38-3.86,1.98-.61,.27-1.22,.54-1.83,.8-.88,.34-1.8,.69-2.71,1-.5,.15-1,.34-1.49,.46-2.06,.65-4.21,1.11-6.38,1.42-.73,.12-1.45,.19-2.22,.27"/><path class="cls-1" d="M269.45,426.69c6.46-3.4,18.5-40.17,7.91-39.02-12.5,1.34-24.8,47.89-7.91,39.02m104.11-197.95c.04-1.64-.11-3.33-.31-5.12,9.94,23.01,15.44,48.31,15.44,74.95,0,104.38-84.62,189.04-189.04,189.04-40.97,0-78.89-13.04-109.85-35.17l.91-1.26c-3.82-17.01-9.36-30.58-1.34-46.97,6.42-13.1,25.34-32.79,23.51-48.65-4.89-42.92-26.07-20.91-41.13-33.79-9.9-8.45-23.35-20.37-25.68-33.94-.95-5.39-.57-28.66,2.71-32.79,4.66-5.88,5.12-5.81,10.17-14.37,5.01-8.48,16.86,10.63,27.79,10.74,6.53,.03,9.52-12.08,15.9-15.52,10.17-5.39,8.07-32.3,3.78-41.12-4.2-8.64-10.02-9.4-4.01-18.39,4.97-7.34,8.33-5.88,15.67-16.7,1.34,2.9,2.79,5.81,4.36,8.67,.15,.23,.26,.5,.38,.77,.92,1.75,1.83,3.48,2.83,5.2,.54,1,1.07,1.95,1.68,2.94,.54,.99,1.11,1.98,1.72,2.98,.58,1,1.15,1.98,1.76,2.98,1.15,1.99,2.33,3.94,3.59,5.85,1.22,1.99,2.45,3.93,3.71,5.85,1.23,1.91,2.49,3.82,3.78,5.73,1.03,1.57,2.1,3.1,3.13,4.62,.27,.34,.5,.69,.73,1.03,.65,.92,1.26,1.83,1.95,2.75,5.35,7.64,10.82,14.94,16.06,21.67-9.22,7.83-19.8,16.97-8.79,20.26,2.3,.65,4.59,.46,6.92-.23,4.24-1.22,8.49-4.17,12.65-6.54,3.33,4.06,6.42,7.72,9.25,11.05,.99,1.11,1.91,2.22,2.82,3.25,7.19,8.26,11.81,13.15,11.81,13.15l.08-.08c.12-.12,.27-.31,.61-.61,.27-.31,.58-.65,.96-1.07,1.87-2.07,5.35-5.85,9.86-11,.5-.58,1-1.19,1.53-1.76,1.03-1.26,2.18-2.56,3.36-3.94,7.45-1.57,16.24-5.88,22.28-2.9,5.62,2.79,9.44,14.56,6.19,20.14-6.5,11.13-38.34,19.15-47.21,12.77-6.42-4.62-6.91-9.52-15.86-10.97-5.05-.84-11.51-.5-16.93,1-1.94,.53-3.7,1.22-5.31,2.03-26.18,13.8-49.31,61.95-1.11,65.44,18.99,1.34,32.1,3.29,36.8,24.42,4.32,19.57-5,49.04,7.65,66.05,25.23,33.94,50.95-45.48,58.09-58.56,8.64-15.9,19.42-33.29,12.61-51.94-.5-1.22-7.83-12.38-7.68-12.69,.69-1.41,3.44,1.49,5.77,1.42,13.15-.58,21.63,2.37,20.75-15.29-.53-10.47-9.1-24.73,4.89-12.69,9.93,8.52,21.09,35.39,34.97,37.46,9.29,1.41,22.24-13.3,29.43-18.31,12.08-8.37,16.06-12.88,14.64-27.97-1.41-15.1-1.57-28.74-1.26-43.84"/><path class="cls-1" d="M277.36,387.66c10.59-1.15-1.45,35.62-7.91,39.02-16.89,8.87-4.59-37.68,7.91-39.02"/><path class="cls-3" d="M10.58,298.57c0-71.17,39.33-133.09,97.39-165.38,2.03,7.53,5,15.37,8.64,23.24,.42,1,.87,1.99,1.37,2.99,0,.12,.04,.19,.12,.27-7.34,10.81-10.7,9.36-15.67,16.7-6,8.99-.19,9.75,4.01,18.39,4.28,8.83,6.39,35.74-3.78,41.13-6.38,3.44-9.36,15.55-15.9,15.52-10.93-.12-22.78-19.23-27.78-10.74-5.05,8.56-5.51,8.49-10.17,14.37-3.29,4.13-3.67,27.41-2.71,32.79,2.33,13.57,15.78,25.5,25.68,33.94,15.07,12.88,36.24-9.14,41.13,33.79,1.83,15.86-17.09,35.55-23.51,48.65-8.02,16.4-2.49,29.97,1.34,46.97l-.91,1.27C41.84,418.17,10.58,362.02,10.58,298.57"/><path class="cls-1" d="M168.81,237.15c1.95,2.45,3.86,4.81,5.73,7.07-4.17,2.37-8.41,5.32-12.65,6.54-2.33,.69-4.62,.88-6.92,.23-11-3.29-.42-12.42,8.79-20.26,.99,1.26,1.98,2.52,2.94,3.78,.73,.88,1.42,1.76,2.11,2.64"/><path class="cls-3" d="M374.83,272.58c1.41,15.09-2.56,19.61-14.64,27.97-7.19,5.01-20.14,19.72-29.43,18.31-13.87-2.07-25.03-28.93-34.97-37.46-13.99-12.04-5.43,2.22-4.89,12.69,.88,17.66-7.61,14.71-20.75,15.29-2.33,.08-5.09-2.83-5.77-1.42-.15,.31,7.19,11.47,7.68,12.69,6.8,18.65-3.97,36.04-12.61,51.94-7.15,13.08-32.87,92.5-58.09,58.56-12.65-17.01-3.33-46.48-7.65-66.04-4.7-21.14-17.81-23.09-36.8-24.43-48.2-3.48-25.08-51.64,1.11-65.44,1.61-.8,3.36-1.49,5.31-2.02,5.43-1.49,11.89-1.83,16.93-1,8.94,1.45,9.44,6.35,15.86,10.97,8.87,6.38,40.71-1.64,47.21-12.76,3.25-5.58-.57-17.36-6.19-20.14-6.04-2.99-14.83,1.33-22.28,2.9,1.98-2.33,4.08-4.85,6.3-7.53,.04-.04,.08-.12,.16-.15,.57-.69,1.15-1.38,1.72-2.11,2.29-2.82,4.7-5.81,7.15-8.9,.5-.65,1.03-1.3,1.53-1.95,2.29-2.94,4.62-5.96,6.99-9.1,.38-.5,.76-1.03,1.19-1.57,.87-1.22,1.79-2.45,2.75-3.67,.88-1.21,1.76-2.44,2.64-3.67,.46-.65,.91-1.26,1.38-1.91,4.66-6.5,9.33-13.3,13.76-20.26,.91-1.38,1.8-2.75,2.64-4.17,.5-.8,1-1.61,1.49-2.41,.69-1.11,1.34-2.22,1.98-3.33,.95-1.57,1.87-3.17,2.79-4.78,.34-.61,.72-1.26,1.06-1.87,.35-.61,.69-1.22,1.04-1.83,.19-.35,.38-.69,.57-1.04,15.63-10.17,30.81-22.97,48.77-19.57,22.59,18.85,40.7,42.85,52.51,70.21,.2,1.79,.35,3.48,.31,5.12-.31,15.1-.16,28.74,1.26,43.84"/><path class="cls-2" d="M292.12,111.67c0,6.42-1.04,13.26-2.9,20.37-.27,1.04-.57,2.07-.84,3.1-.27,.88-.53,1.76-.8,2.6-.31,.99-.61,1.94-.96,2.9-.31,.95-.65,1.94-1.03,2.9-.34,1.04-.72,2.03-1.11,3.06-.38,.95-.77,1.87-1.15,2.83-.39,.99-.8,1.99-1.23,2.98-.88,1.99-1.76,3.97-2.68,5.97-2.29,4.85-4.77,9.71-7.45,14.6-.19,.35-.38,.69-.57,1.04-.34,.61-.68,1.22-1.03,1.83-.35,.65-.69,1.26-1.07,1.87-.92,1.6-1.83,3.21-2.79,4.77-.65,1.11-1.34,2.22-1.99,3.33-.49,.8-1,1.61-1.49,2.41-.87,1.42-1.76,2.79-2.63,4.17-4.44,6.96-9.1,13.76-13.76,20.26-.46,.65-.91,1.26-1.37,1.91-.88,1.22-1.76,2.45-2.64,3.67-.95,1.23-1.87,2.45-2.75,3.67-.38,.54-.8,1.04-1.19,1.57-2.37,3.14-4.7,6.16-6.99,9.1-.5,.65-1.03,1.3-1.53,1.95-2.44,3.1-4.85,6.08-7.15,8.9-.31,.39-.61,.77-.95,1.11-.31,.42-.61,.8-.92,1.15-2.22,2.67-4.32,5.2-6.31,7.53-1.19,1.37-2.33,2.68-3.36,3.94-.54,.61-1.07,1.18-1.53,1.75-4.51,5.16-7.99,8.94-9.86,11.01-.42,.46-.76,.8-.95,1.07-.34,.3-.5,.5-.61,.61-.03,.04-.08,.08-.08,.08,0,0-4.62-4.89-11.81-13.15-.92-1.03-1.83-2.14-2.83-3.25-2.83-3.33-5.92-6.99-9.25-11.05-1.87-2.26-3.78-4.62-5.73-7.07-.69-.87-1.38-1.76-2.1-2.64-.96-1.26-1.95-2.52-2.94-3.78-5.24-6.73-10.7-14.03-16.06-21.67-.65-.92-1.3-1.83-1.94-2.75-.23-.35-.46-.69-.73-1.03-1.03-1.53-2.07-3.06-3.13-4.63-1.26-1.91-2.52-3.82-3.79-5.73-1.26-1.92-2.48-3.86-3.7-5.85-1.23-1.95-2.41-3.9-3.59-5.85-.61-1-1.19-1.99-1.76-2.98-.58-1-1.15-1.99-1.72-2.99-.53-.95-1.11-1.94-1.68-2.94-.95-1.76-1.87-3.47-2.83-5.2-.12-.27-.23-.54-.38-.76-1.53-2.9-2.98-5.81-4.36-8.67v-.04c-.04-.08-.08-.16-.12-.23-.46-.99-.91-1.99-1.38-2.98-3.59-7.87-6.53-15.71-8.6-23.24h-.04c-2.06-7.53-3.21-14.75-3.21-21.52,0-51.71,41.93-93.68,93.68-93.68s93.68,41.97,93.68,93.68m-97.27,45.71c1.23,.12,2.49,.15,3.75,.15s2.52-.03,3.74-.15c.27,0,.5-.03,.73-.08,.72-.04,1.45-.15,2.22-.27,2.18-.31,4.32-.77,6.38-1.42,.5-.12,1-.27,1.49-.46,.92-.31,1.84-.65,2.71-1,.61-.27,1.23-.53,1.84-.8,1.34-.61,2.6-1.26,3.86-1.98,.57-.35,1.15-.69,1.72-1.07,.61-.34,1.19-.76,1.76-1.19,8.07-5.69,14.22-13.91,17.24-23.55,.69-2.06,1.19-4.2,1.53-6.34,.42-2.48,.65-5,.65-7.57,0-25.3-20.52-45.86-45.86-45.86s-45.83,20.56-45.83,45.86c0,2.75,.23,5.43,.72,8.03,.23,1.41,.54,2.82,.95,4.24,.15,.65,.35,1.26,.57,1.91,.23,.73,.5,1.45,.77,2.14,.23,.69,.49,1.34,.8,1.98,.27,.65,.54,1.3,.88,1.92,.31,.65,.61,1.26,1,1.87,1,1.87,2.14,3.67,3.4,5.35,.84,1.11,1.72,2.18,2.64,3.21,.46,.5,.95,1.04,1.45,1.53,.46,.5,.95,1,1.49,1.45,.5,.5,1.04,.95,1.57,1.38,.54,.5,1.07,.96,1.64,1.34,.58,.46,1.11,.89,1.68,1.23,.53,.42,1.11,.8,1.64,1.15,.03,0,.08,.03,.12,.08,.57,.34,1.18,.72,1.76,1.03,4.78,2.75,10.09,4.62,15.75,5.5,.49,.08,.95,.16,1.45,.19,.38,.04,.72,.12,1.07,.12,.27,.04,.5,.08,.72,.08"/><path class="cls-4" d="M292.98,139.62l-10.83-3.76c.16-.47,.3-.94,.43-1.39l.31-1.05,10.94,3.44-.25,.86c-.19,.63-.38,1.27-.6,1.91"/><path class="cls-4" d="M290.93,145.59l-10.7-4.11c.34-.89,.65-1.74,.92-2.6l10.92,3.5c-.34,1.05-.72,2.11-1.14,3.21"/><polygon class="cls-4" points="288.65 151.55 278 147.31 279.15 144.48 289.8 148.72 288.65 151.55"/><path class="cls-4" d="M284.63,160.78l-10.41-4.81c.9-1.96,1.77-3.92,2.64-5.87l10.49,4.63c-.89,2.02-1.79,4.04-2.72,6.05"/><polygon class="cls-4" points="276.43 176.77 266.37 171.25 266.96 170.19 276.98 175.75 276.43 176.77"/><polygon class="cls-4" points="249.94 217.87 240.57 211.25 241.95 209.33 251.31 215.96 249.94 217.87"/><path class="cls-4" d="M243.33,226.82l-9.3-6.71c.23-.32,.46-.62,.71-.93l.47-.62c.93-1.29,1.89-2.57,2.89-3.86l9.04,7.05c-.91,1.16-1.78,2.33-2.62,3.49-.24,.33-.49,.65-.74,.98l-.45,.6Z"/><path class="cls-4" d="M225.44,249.46l-8.6-7.58c.19-.21,.38-.46,.58-.72l9.27,6.73c-.42,.58-.83,1.09-1.26,1.57"/><path class="cls-4" d="M214.28,262.64l-8.68-7.49,.4-.47c.42-.5,.84-.99,1.29-1.47l8.35,7.86c-.31,.33-.6,.68-.89,1.02l-.47,.56Z"/><polygon class="cls-4" points="203.55 274.62 199.12 270.97 194.97 267.01 195.84 266.04 204.32 273.76 203.55 274.62"/><path class="cls-4" d="M198.44,271.66l-4.17-3.93,4.17,3.93Zm4.32,3.78l-5.92-5.39,5.92,5.39Z"/><path class="cls-4" d="M182.35,262.33l-1.38-1.59c-.47-.54-.94-1.1-1.43-1.65l8.54-7.65c.55,.61,1.08,1.23,1.59,1.82l1.24,1.43-8.56,7.63Z"/><path class="cls-4" d="M143.12,212.49c-.5-.67-.96-1.34-1.42-2l-.61-.87,9.36-6.62,.67,.96c.39,.56,.77,1.12,1.19,1.67l-9.18,6.87Z"/><path class="cls-4" d="M140.28,208.47l-1.19-1.74c-.67-.97-1.33-1.94-1.98-2.93-1.28-1.89-2.57-3.84-3.82-5.79l9.66-6.19c1.2,1.87,2.43,3.74,3.7,5.61,.66,1.01,1.29,1.92,1.92,2.83l1.23,1.81-9.51,6.4Z"/><path class="cls-4" d="M129.63,192.22c-1.32-2.01-2.57-4.06-3.78-6.14l9.94-5.73c1.09,1.89,2.21,3.74,3.41,5.55l-9.57,6.32Z"/><path class="cls-4" d="M124.18,183.24c-.67-1.09-1.29-2.17-1.88-3.26-.51-.81-1.1-1.86-1.69-2.96-.94-1.62-1.9-3.42-2.86-5.25l10.17-5.31c.88,1.68,1.75,3.33,2.71,4.97,.57,1.06,1.05,1.93,1.6,2.82,.65,1.18,1.16,2.08,1.72,2.99l-9.77,6Z"/><path class="cls-4" d="M117.42,171.1c-1.58-2.89-3.1-5.92-4.54-9.02h0c-.04-.09-.08-.17-.12-.26-.53-1.05-1.01-2.12-1.46-3.17-3.86-8.37-6.88-16.49-8.89-23.98-2.26-8.24-3.41-15.99-3.41-23,0-54.81,44.6-99.41,99.42-99.41s99.42,44.6,99.42,99.41c0,6.68-1.04,14.03-3.09,21.84l-11.09-2.92c1.8-6.85,2.71-13.21,2.71-18.91,0-48.49-39.45-87.94-87.95-87.94S110.49,63.17,110.49,111.66c0,5.99,1.01,12.72,3.01,20.01,1.85,6.89,4.65,14.4,8.31,22.35,.45,1.06,.86,1.94,1.3,2.82,.08,.14,.13,.28,.2,.43,1.32,2.87,2.73,5.67,4.18,8.33l-10.06,5.5Z"/><path class="cls-4" d="M198.59,163.26c-1.43,0-2.84-.05-4.27-.17l1.05-11.42c2.16,.2,4.27,.2,6.44,0l1.05,11.42c-1.44,.13-2.83,.17-4.27,.17"/><path class="cls-4" d="M203.38,163.03l-.65-11.45c.53-.03,1.06-.12,1.62-.2l1.72,11.33c-.93,.14-1.81,.27-2.69,.32"/><path class="cls-4" d="M212.96,161.2l-2.6-11.17c.25-.06,.49-.13,.74-.23l4.1,10.71c-.75,.28-1.49,.51-2.24,.69"/><rect class="cls-4" x="215.78" y="148.04" width="2.01" height="11.46" transform="translate(-43.54 100.19) rotate(-23.72)"/><path class="cls-4" d="M224.61,156.23l-6.01-9.77c.57-.35,1.04-.62,1.51-.94,.12-.08,.24-.15,.36-.22,.4-.22,.76-.5,1.13-.78,7.27-5.13,12.62-12.44,15.2-20.67,.58-1.75,1.02-3.59,1.34-5.54,.38-2.29,.57-4.51,.57-6.65,0-22.13-18-40.13-40.14-40.13s-40.09,18-40.09,40.13c0,2.45,.21,4.79,.62,6.95,.24,1.43,.5,2.59,.82,3.69,.19,.76,.33,1.19,.49,1.64l-10.82,3.8c-.3-.85-.54-1.65-.75-2.49-.38-1.25-.74-2.87-1.03-4.63-.52-2.72-.8-5.79-.8-8.96,0-28.45,23.13-51.6,51.56-51.6s51.6,23.14,51.6,51.6c0,2.78-.24,5.64-.73,8.52-.41,2.53-1,4.97-1.75,7.2-3.29,10.51-10.18,19.93-19.37,26.42-.64,.47-1.33,.97-2.06,1.39-.56,.36-1.12,.7-1.67,1.04"/><path class="cls-4" d="M153.6,136.81c-.48-.76-.87-1.52-1.25-2.31-.39-.73-.72-1.49-1.04-2.26-.32-.68-.68-1.53-.98-2.45l10.88-3.6c.16,.46,.34,.9,.55,1.34,.31,.75,.47,1.16,.69,1.56,.07,.12,.13,.23,.19,.35,.21,.45,.41,.86,.67,1.27l-9.71,6.1Z"/><path class="cls-4" d="M160.21,146.13c-1.02-1.15-1.99-2.33-2.92-3.56l9.14-6.93c.75,.99,1.53,1.95,2.35,2.87l-8.57,7.61Z"/><path class="cls-4" d="M170.87,155.21c-.59-.38-1.22-.8-1.82-1.26-.61-.39-1.2-.83-1.81-1.32-.68-.47-1.33-1.01-1.97-1.6-.59-.47-1.18-.99-1.74-1.53-.64-.57-1.24-1.16-1.79-1.76l8.41-7.79c.32,.34,.65,.68,1.02,1,.11,.09,.21,.19,.31,.29,.34,.34,.71,.65,1.07,.93,.12,.1,.24,.2,.35,.3,.3,.28,.6,.55,.92,.76,.14,.09,.27,.19,.4,.3,.36,.28,.68,.57,1.04,.78,.21,.13,.42,.27,.62,.43,.38,.3,.8,.57,1.19,.82l-6.2,9.64Z"/><path class="cls-4" d="M173.15,156.55c-.56-.3-1.13-.65-1.7-.98l5.59-10.02,.35,.21c.38,.23,.78,.47,1.15,.67l-5.39,10.12Z"/><path class="cls-4" d="M194.12,163.04c-.49,0-.97-.05-1.48-.12-.6-.06-1.18-.14-1.76-.23l1.57-11.36c.46,.07,.78,.12,1.06,.14l.76,.09-.15,11.47Z"/><path class="cls-4" d="M85.13,452.45c-.57-2.56-1.19-5.03-1.79-7.45-3.51-14.16-6.82-27.53,.9-43.3,2.15-4.39,5.42-9.22,8.89-14.33,6.72-9.92,15.1-22.27,14.07-31.15-2.63-23.08-8.65-23.33-18.62-23.74-6.13-.25-13.77-.57-20.53-6.35-12.01-10.25-25.05-22.44-27.61-37.33-.71-3.99-1.5-30.58,3.88-37.33,1-1.27,1.82-2.27,2.53-3.14,2.49-3.06,3.43-4.21,7.18-10.58,1.96-3.32,4.61-4.45,6.49-4.82,5.29-1.06,10.06,2.61,15.11,6.47,3.64,2.78,8.18,6.24,11.18,6.27,.79-.35,2.82-3.37,4.03-5.17,2.36-3.51,5.03-7.48,9.09-9.67,5.9-3.12,5.22-25.58,1.35-33.57-1-2.05-2.13-3.59-3.23-5.07-3.76-5.09-6.39-10.03-.39-19.01,2.76-4.07,5.26-6.06,7.47-7.82,2.41-1.92,4.69-3.72,8.22-8.92l9.49,6.45c-4.51,6.65-7.88,9.32-10.58,11.46-1.94,1.53-3.33,2.64-5.09,5.23-1.59,2.37-1.59,3.21-1.59,3.22,.09,.4,1.02,1.66,1.7,2.57,1.27,1.72,2.85,3.86,4.32,6.87,5.05,10.42,8.04,41.12-6.25,48.7-1.53,.83-3.36,3.55-4.98,5.95-3.07,4.56-6.88,10.23-13.57,10.23h-.07c-6.85-.07-12.8-4.61-18.05-8.62-1.64-1.25-3.92-2.99-5.42-3.83-3.54,5.94-4.86,7.62-7.53,10.89-.68,.83-1.46,1.79-2.43,3.02-1.78,3.37-2.47,23.11-1.56,28.23,2.08,12.07,15.65,23.66,23.76,30.58,3.75,3.21,8.3,3.4,13.56,3.61,14.12,.58,26.09,3.53,29.55,33.89,1.52,13.1-7.78,26.8-15.97,38.89-3.23,4.77-6.28,9.27-8.08,12.94-5.88,12.02-3.32,22.38-.06,35.5,.62,2.5,1.25,5.05,1.85,7.69l-11.19,2.52Z"/><path class="cls-4" d="M28.82,233.11l-10.72-4.08c15.01-39.42,43.03-73.44,78.92-95.82l6.06,9.73c-33.77,21.05-60.15,53.08-74.27,90.17"/><path class="cls-4" d="M164.31,240.69l-.29-.37c-.57-.72-1.13-1.44-1.73-2.16l8.84-7.3c.65,.79,1.28,1.59,1.9,2.38l.28,.36-9.01,7.09Z"/><path class="cls-4" d="M157.89,257.12c-1.53,0-3.01-.2-4.48-.62-6.17-1.85-8.11-5.37-8.67-8.02-1.62-7.72,6.6-14.72,15.31-22.12l7.43,8.74c-3.01,2.56-8.79,7.48-10.81,10.41,.96,.25,2.13,.19,3.6-.25,2.57-.74,5.4-2.44,8.4-4.22,1.02-.61,2.04-1.22,3.05-1.8l5.67,9.97c-.94,.53-1.88,1.1-2.83,1.67-3.49,2.09-7.1,4.25-11.07,5.4-1.93,.57-3.78,.86-5.58,.86"/><path class="cls-4" d="M225.6,249.3l-8.61-7.56c.1-.11,.2-.24,.28-.36,.21-.33,.46-.64,.74-.91,.19-.19,.35-.41,.53-.63l8.97,7.15c-.31,.39-.64,.79-.98,1.16-.29,.4-.6,.79-.92,1.15"/><polygon class="cls-4" points="234.71 237.99 225.6 231.02 227.13 229.08 236.24 236.04 234.71 237.99"/><path class="cls-4" d="M265.17,195.56l-9.55-6.35c.86-1.3,1.69-2.59,2.48-3.92l1.54-2.5c.67-1.07,1.29-2.13,1.92-3.21l9.89,5.79c-.67,1.15-1.34,2.3-2.06,3.45l-1.49,2.41c-.84,1.41-1.77,2.86-2.74,4.32"/><path class="cls-4" d="M274.17,180.74l-9.74-6.05c.31-.5,.59-1,.87-1.53l10.14,5.36c-.41,.77-.82,1.5-1.27,2.22"/><path class="cls-4" d="M214.35,445.26c-6.42,0-12.34-3.59-17.62-10.69-9.03-12.14-8.41-28.44-7.8-44.2,.34-8.89,.65-17.28-.83-24.03-3.64-16.36-11.99-18.55-31.61-19.94-24.84-1.79-31.2-14.72-32.78-22.27-4.03-19.23,13.38-44.35,31.62-53.96,2.11-1.05,4.25-1.87,6.47-2.48,6.17-1.7,13.41-2.11,19.39-1.12,7.77,1.26,11.07,4.83,13.99,7.98,1.3,1.4,2.52,2.72,4.28,4,1.47,1.05,7.3,1.99,16.66,0,10.29-2.19,19.84-6.92,22.23-11.02,.42-.72,.74-3.09-.23-6.31-.98-3.27-2.67-5.36-3.56-5.8-2.41-1.19-7.48,.3-11.95,1.62-2.16,.63-4.4,1.29-6.6,1.75l-2.36-11.22c1.84-.39,3.77-.96,5.72-1.54,6.49-1.9,13.85-4.07,20.28-.9,4.14,2.05,7.67,6.84,9.46,12.79,1.75,5.84,1.44,11.44-.86,15.38-4.98,8.53-18.64,14.09-29.76,16.45-6.65,1.42-18.85,3.04-25.74-1.92-2.7-1.94-4.52-3.92-6-5.51-2.43-2.63-3.54-3.82-7.43-4.46-4.3-.72-9.98-.38-14.49,.87-1.52,.42-2.92,.95-4.26,1.63-15.54,8.19-28.29,28.73-25.64,41.4,1.63,7.79,9.16,12.23,22.37,13.19,16.93,1.19,36.13,2.55,41.99,28.89,1.81,8.2,1.45,17.73,1.09,26.95-.53,13.78-1.06,28.02,5.55,36.92,3.22,4.34,6.31,6.33,9.16,6.02,12.53-1.5,27.57-36.95,33.99-52.08,2.22-5.24,3.97-9.37,5.31-11.81l1.78-3.25c7.78-14.17,15.82-28.82,10.59-43.67-.49-.88-2.18-3.56-3.32-5.37-5.19-8.24-5.73-9.11-4.21-12.16,.73-1.51,2.05-2.68,3.69-3.22,2.78-.93,5.07,.25,6.59,1.02,.28,.14,.56,.31,.86,.43,1.76-.06,3.5-.08,5.13-.08,3.59-.02,7.65-.04,8.59-1.04,.33-.35,1.38-1.96,1.07-8.13-.13-2.65-.97-5.9-1.72-8.77-1.42-5.5-2.77-10.7,1.81-13.55,4.92-3.05,10.1,1.41,14.27,4.99,4.19,3.6,8.2,9.47,12.44,15.68,5.93,8.69,13.31,19.5,19.64,20.45,4.2,.64,12.87-6.9,18.05-11.4,2.63-2.28,5.1-4.44,7.26-5.94,11.09-7.68,13.36-10.48,12.21-22.74-1.58-16.92-1.53-31.98-1.28-44.5,.03-1.11-.05-2.29-.21-3.77-11.03-25.21-27.98-47.99-49.1-66.01-12.69-1.83-24.4,6.12-36.79,14.5-2.21,1.5-4.42,2.99-6.64,4.44l-6.25-9.62c2.16-1.4,4.32-2.86,6.47-4.32,14.09-9.53,28.66-19.39,46.36-16.1,.02,0,.04,0,.06,0,1.08,.14,2.11,.58,2.96,1.3,23.26,19.49,41.86,44.4,53.79,72.03,.22,.5,.36,1.04,.43,1.59,.01,.1,.03,.23,.04,.34,.19,1.76,.39,3.81,.34,5.88-.36,17.48,0,29.99,1.24,43.17,1.7,18.1-4.19,24.29-17.09,33.22-1.64,1.15-3.89,3.11-6.27,5.18-7.95,6.92-17.83,15.55-27.29,14.08-11.27-1.67-19.84-14.23-27.4-25.32-2.17-3.18-4.27-6.26-6.24-8.81,.18,1.13,.31,2.27,.37,3.4,.4,7.99-.9,13.11-4.19,16.59-4.31,4.55-10.4,4.59-16.85,4.62h-.19c1.33,2.15,1.72,2.85,1.97,3.48,7.31,20.03-2.48,37.88-11.12,53.62l-1.76,3.22c-1.07,1.95-2.81,6.05-4.83,10.8-12.17,28.69-25.53,56.88-43.18,58.99-.71,.09-1.42,.13-2.11,.13"/><path class="cls-4" d="M275.84,395.07c-1.2,1.37-2.82,3.69-4.55,7.48-3.67,8.09-4.65,15.54-4.32,18.88,3.73-3.56,8.46-19.17,8.86-26.37m-10.15,38.47h0c-4.61,0-9.7-3.19-10.18-12.13-.65-12.32,8.07-38.04,21.24-39.45,.37-.04,.73-.06,1.08-.06,3.41,0,7.56,2,8.94,7.61,2.68,10.85-6.76,38.1-14.65,42.25-2.29,1.2-4.39,1.78-6.43,1.78"/><path class="cls-4" d="M177.16,145.62l1.63,.95c4.13,2.38,8.76,4,13.69,4.76,.49,.08,.73,.12,1,.14,.13,.01,.6,.08,.73,.09,.27,0,.45,.03,.71,.06,.19,0,.29,.03,.47,.05,2.09,.2,4.32,.2,6.41,0,.18-.02,.36-.02,.54-.02,.8-.12,1.42-.17,2.05-.27,2.05-.3,3.89-.69,5.56-1.22,.14-.05,.28-.09,.42-.12,.16-.04,.32-.1,.49-.16l.62-.2c.7-.23,1.52-.54,2.31-.85l1.63-.71c1.09-.5,2.19-1.07,3.3-1.71,.48-.29,.95-.57,1.42-.89,.61-.38,1.06-.68,1.53-1.02,7.15-5.07,12.51-12.4,15.17-20.68,.44-1.35,.82-2.88,1.15-4.54-26.4-5.59-53.27-5.32-78.64,.41,.18,.89,.39,1.81,.64,2.71l.56,1.83c.16,.5,.38,1.1,.6,1.67,.25,.64,.5,1.26,.76,1.87,.22,.53,.46,1.05,.71,1.54,.3,.64,.58,1.12,.85,1.61,.92,1.73,1.9,3.28,3,4.74,.74,.97,1.53,1.93,2.34,2.85,.34,.37,.78,.84,1.22,1.28,.45,.45,.89,.89,1.33,1.3,.39,.36,.81,.76,1.23,1.09,.6,.51,1.02,.87,1.48,1.21,.57,.44,1.01,.77,1.46,1.06l1.67,1.16Zm21.42,17.65c-1.38,0-2.76-.04-4.11-.16-.28-.01-.58-.04-.89-.09-.34-.02-.68-.06-1.01-.1-.53-.05-1.06-.13-1.61-.21-6.58-1.02-12.54-3.11-17.98-6.24l-1.85-1.09c-.11-.06-.21-.13-.32-.2l-.17-.12-1.64-1.15c-.54-.35-1.24-.87-1.89-1.38-.54-.39-1.2-.94-1.84-1.5-.47-.36-1.12-.95-1.72-1.51-.55-.51-1.1-1.06-1.65-1.61-.56-.56-1.12-1.15-1.63-1.71-1.08-1.21-2.05-2.4-2.99-3.63-1.47-1.96-2.77-4.01-3.89-6.13-.34-.6-.75-1.33-1.12-2.11-.31-.61-.67-1.39-.99-2.16-.28-.68-.56-1.37-.84-2.09-.32-.82-.63-1.67-.9-2.52l-.6-1.98c-.46-1.64-.8-3.22-1.1-4.84-.28-1.7-.49-3.31-.61-4.96-.21-2.78,1.6-5.31,4.29-6,30.2-7.75,62.61-8.08,94.11-.52,2.74,.66,4.6,3.21,4.38,6.02-.13,1.64-.3,3.24-.55,4.84-.47,2.69-1.05,5.08-1.74,7.21-3.41,10.62-10.29,20.02-19.38,26.47-.61,.45-1.3,.91-2.02,1.37-.5,.33-1.11,.7-1.72,1.07-1.6,.93-3.03,1.65-4.52,2.34l-1.92,.84c-1.18,.47-2.19,.84-3.21,1.18l-.5,.16c-.42,.14-.84,.28-1.26,.39-2.22,.68-4.62,1.21-7.13,1.57-.73,.12-1.56,.2-2.43,.3-.16,.03-.53,.08-.98,.09-1.34,.12-2.7,.16-4.07,.16"/><path class="cls-4" d="M104.62,141.76C49.98,174.98,16.31,234.42,16.31,298.57c0,59.05,28.73,114.83,76.83,149.21,31.21,22.3,68.04,34.09,106.51,34.09,101.08,0,183.31-82.23,183.31-183.31,0-25.23-5.03-49.68-14.97-72.68-11.29-26.17-28.91-49.72-50.93-68.09-7.62-6.36-15.8-12.14-24.39-17.22-.21,.67-.43,1.34-.68,2.01-.27,.87-.66,1.99-1.09,3.07-.17,.53-.48,1.37-.79,2.2l-1.46,3.68c-.39,1-.83,2.05-1.27,3.1-.86,2.04-1.81,4.08-2.75,6.13-2.33,4.92-4.81,9.8-7.63,14.94l-2.7,4.8c-.97,1.69-1.91,3.34-2.89,4.95l-3.5,5.77c-.75,1.2-1.49,2.37-2.23,3.53l-.44,.69c-4.16,6.52-8.85,13.43-13.94,20.52l-4.02,5.59c-1.04,1.34-1.91,2.5-2.74,3.66l-1.31,1.74c-2.34,3.1-4.69,6.15-7.01,9.11l-1.49,1.9c-2.51,3.19-4.94,6.19-7.25,9.04-.56,.71-1.16,1.43-1.76,2.16-.12,.14-.23,.27-.36,.39-2.05,2.48-4.15,5-6.14,7.34l-.75,.87c-.9,1.02-1.75,2.01-2.54,2.98l-.58,.67c-.32,.35-.63,.69-.9,1.04-4.04,4.63-7.16,8.05-9.17,10.26l-1.6,1.75c-.24,.34-.4,.49-.71,.77-.07,.07-.36,.38-.44,.45-1.1,1.06-2.63,1.64-4.15,1.65-1.53-.03-3.02-.64-4.07-1.75-.19-.2-4.79-5.07-11.97-13.33l-1.34-1.53c-.46-.54-.94-1.09-1.43-1.65-2.95-3.46-6.06-7.16-9.41-11.24-1.87-2.26-3.81-4.66-5.79-7.13l-.31-.4c-.56-.72-1.13-1.44-1.72-2.16-1.09-1.41-2.06-2.65-3.03-3.88-5.9-7.59-11.36-14.96-16.24-21.93l-1.94-2.73c-.24-.36-.39-.58-.56-.8-.08-.11-.16-.22-.24-.34l-6.95-10.4c-1.3-1.96-2.55-3.96-3.81-6.01-1.16-1.85-2.32-3.75-3.48-5.67-.69-1.13-1.25-2.08-1.8-3.04l-4.48-7.89c-.65-1.2-1.29-2.38-1.95-3.56-.09-.17-.17-.34-.25-.52-.03-.09,.06,.06,.13,.17-.11-.17-.21-.35-.31-.53-1.56-2.97-3.05-5.94-4.45-8.86-.05-.12-.1-.23-.16-.35h0l-1.37-2.97c-2.68-5.86-4.95-11.58-6.78-17.07m95.04,351.58c-40.88,0-80.02-12.53-113.18-36.23C35.36,420.58,4.84,361.31,4.84,298.57c0-70.68,38.45-135.97,100.34-170.4,3.11-1.72,7.41,.07,8.35,3.49,1.93,7.01,4.71,14.55,8.29,22.37l1.32,2.86c.03,.06,.06,.11,.07,.14,.08,.15,.14,.31,.2,.46,1.28,2.65,2.62,5.33,4.03,8.01,.2,.34,.37,.69,.54,1.05,.63,1.15,1.25,2.29,1.87,3.44l4.18,7.37c.64,1.1,1.14,1.97,1.67,2.83,1.27,2.09,2.4,3.95,3.57,5.81,1.22,1.98,2.41,3.88,3.63,5.74l6.78,10.15c.31,.41,.59,.82,.86,1.22l1.85,2.62c4.79,6.84,10.13,14.05,15.9,21.46,1,1.26,2.01,2.55,2.98,3.84,.51,.61,1.14,1.4,1.76,2.19l.29,.36c1.9,2.39,3.79,4.73,5.64,6.95,3.33,4.05,6.4,7.7,9.21,11,.45,.5,.98,1.11,1.49,1.71l1.25,1.44c3.01,3.46,5.57,6.34,7.53,8.49,1.87-2.07,4.32-4.78,7.19-8.07,.24-.31,.69-.82,1.16-1.34l.39-.44c.71-.88,1.64-1.96,2.61-3.07l.72-.82c1.94-2.28,4.03-4.78,6.23-7.44,.1-.12,.21-.24,.32-.35,.49-.59,.97-1.18,1.46-1.8,2.33-2.86,4.72-5.83,7.15-8.9l1.48-1.88c2.31-2.96,4.62-5.95,6.97-9.07l1.25-1.65c.78-1.09,1.74-2.38,2.74-3.66l3.85-5.36c4.99-6.95,9.56-13.68,13.61-20.02l.45-.69c.72-1.13,1.43-2.26,2.15-3.41l3.4-5.61c.98-1.61,1.87-3.17,2.77-4.73l2.63-4.65c2.7-4.94,5.09-9.62,7.29-14.29,.87-1.88,1.76-3.82,2.58-5.74,.41-.95,.8-1.89,1.16-2.82l1.4-3.5c.26-.71,.53-1.4,.76-2.12,.45-1.15,.75-2.01,1.01-2.85,.39-1.08,.67-1.94,.94-2.85,.28-.86,.54-1.71,.79-2.56l.79-2.88c.44-1.71,1.64-3.11,3.26-3.81,1.61-.71,3.46-.62,5.01,.21,11.54,6.24,22.47,13.64,32.48,22,23.39,19.52,42.1,44.53,54.1,72.34,10.56,24.44,15.91,50.43,15.91,77.23,0,107.4-87.38,194.77-194.77,194.77"/></svg>