<?xml version="1.0" encoding="UTF-8"?><svg id="Layer_1" xmlns="http://www.w3.org/2000/svg" viewBox="0 0 500 396.67"><defs><style>.cls-1{fill:#00a5b1;}.cls-2{fill:#e6007e;}.cls-3{fill:none;stroke:#1d1d1b;stroke-linecap:round;stroke-linejoin:round;stroke-width:6px;}</style></defs><path class="cls-1" d="M350.11,11.51c-9.24,2.93-18.28,7.15-27.23,12.71-11.71,7.69-22.05,17.06-31.12,28.14-9.08,11.04-16.7,23.79-22.83,38.26-6.45-14.47-14.15-27.22-23.07-38.26-8.92-11.08-19.06-20.45-30.37-28.14-8.96-5.56-18.12-9.78-27.47-12.71-9.39-2.89-19.02-4.38-28.81-4.38-4.28,0-8.76,.31-13.36,.94-4.64,.63-9.27,1.51-13.83,2.75-6.8,1.87-13.44,4.38-19.85,7.62-6.48,3.24-12.61,7.27-18.47,12.22-5.82,4.91-11.12,10.47-15.88,16.58-4.83,6.14-9.03,12.91-12.69,20.32-.35,.32-.51,.59-.71,.92-.16,.3-.19,.59-.19,.91-.35,.29-.63,.61-.94,.94v.47c-5.23,10.42-9.16,21.63-11.79,33.6-2.59,12.03-3.89,24.76-3.89,38.29v.94c0,6.76,.94,13.85,2.79,21.22,1.77,7.35,4.71,15.15,8.77,23.5,3.65,8.33,8.13,16.58,13.36,24.86,5.19,8.33,11.16,16.46,17.96,24.5,12.93,15.97,26.81,31.32,41.69,46.08,14.93,14.75,30.69,27.41,47.31,40.96,15.01,12.57,28.88,22.58,41.5,31.93,12.57,9.41,23.98,15.37,34.11,21.79,4.28,2.79,7.62,4.85,9.9,6.25,2.32,1.35,3.62,2.08,3.93,2.08,.27,0,1.61-.73,3.93-2.08,2.32-1.4,5.62-3.36,9.9-5.76,10.14-6.74,21.5-12.46,34.15-21.97,12.57-9.53,26.41-18.85,41.5-30.81,16.9-14.13,32.82-28.12,47.71-42.88,14.93-14.71,28.69-29.94,41.26-45.6,6.76-8.03,12.73-16.07,18-24.21,5.23-8.17,9.71-16.38,13.36-24.68,3.97-8.29,6.92-16.23,8.8-23.75,1.81-7.54,2.71-14.68,2.71-21.44v-.94c-.27-13.54-1.69-26.27-4.13-38.29-2.44-11.97-6.17-23.05-11.04-33.16l-1.89-3.68c-4.05-7.41-8.37-14.03-13.13-20.08-4.8-5.97-10.06-11.45-15.91-16.37-5.86-4.95-11.95-9.06-18.24-12.46-6.33-3.38-13-5.97-20.04-7.84-4.64-1.23-9.24-2.12-13.83-2.75-4.6-.63-9.04-.94-13.36-.94-9.86,0-19.37,1.49-28.57,4.38"/><path class="cls-3" d="M350.11,11.51c-9.24,2.93-18.28,7.15-27.23,12.71-11.71,7.69-22.05,17.06-31.12,28.14-9.08,11.04-16.7,23.79-22.83,38.26-6.45-14.47-14.15-27.22-23.07-38.26-8.92-11.08-19.06-20.45-30.37-28.14-8.96-5.56-18.12-9.78-27.47-12.71-9.39-2.89-19.02-4.38-28.81-4.38-4.28,0-8.76,.31-13.36,.94-4.64,.63-9.27,1.51-13.83,2.75-6.8,1.87-13.44,4.38-19.85,7.62-6.48,3.24-12.61,7.27-18.47,12.22-5.82,4.91-11.12,10.47-15.88,16.58-4.83,6.14-9.03,12.91-12.69,20.32-.35,.32-.51,.59-.71,.92-.16,.3-.19,.59-.19,.91-.35,.29-.63,.61-.94,.94v.47c-5.23,10.42-9.16,21.63-11.79,33.6-2.59,12.03-3.89,24.76-3.89,38.29v.94c0,6.76,.94,13.85,2.79,21.22,1.77,7.35,4.71,15.15,8.77,23.5,3.65,8.33,8.13,16.58,13.36,24.86,5.19,8.33,11.16,16.46,17.96,24.5,12.93,15.97,26.81,31.32,41.69,46.08,14.93,14.75,30.69,27.41,47.31,40.96,15.01,12.57,28.88,22.58,41.5,31.93,12.57,9.41,23.98,15.37,34.11,21.79,4.28,2.79,7.62,4.85,9.9,6.25,2.32,1.35,3.62,2.08,3.93,2.08,.27,0,1.61-.73,3.93-2.08,2.32-1.4,5.62-3.36,9.9-5.76,10.14-6.74,21.5-12.46,34.15-21.97,12.57-9.53,26.41-18.85,41.5-30.81,16.9-14.13,32.82-28.12,47.71-42.88,14.93-14.71,28.69-29.94,41.26-45.6,6.76-8.03,12.73-16.07,18-24.21,5.23-8.17,9.71-16.38,13.36-24.68,3.97-8.29,6.92-16.23,8.8-23.75,1.81-7.54,2.71-14.68,2.71-21.44v-.94c-.27-13.54-1.69-26.27-4.13-38.29-2.44-11.97-6.17-23.05-11.04-33.16l-1.89-3.68c-4.05-7.41-8.37-14.03-13.13-20.08-4.8-5.97-10.06-11.45-15.91-16.37-5.86-4.95-11.95-9.06-18.24-12.46-6.33-3.38-13-5.97-20.04-7.84-4.64-1.23-9.24-2.12-13.83-2.75-4.6-.63-9.04-.94-13.36-.94-9.86,0-19.37,1.49-28.57,4.38"/><path class="cls-2" d="M89.56,242.39c-2.39,3.08-4.44,6.57-6.13,10.47-2.13,5.24-3.42,10.73-3.89,16.5-.48,5.75-.09,11.74,1.2,17.95-5.47-3.33-10.96-5.8-16.45-7.42-5.52-1.64-11.03-2.43-16.56-2.38-4.26,.21-8.27,.91-12.05,2.08-3.79,1.19-7.33,2.91-10.58,5.16-1.42,.98-2.84,2.12-4.22,3.38-1.4,1.27-2.74,2.63-3.97,4.08-1.82,2.18-3.46,4.55-4.85,7.09-1.41,2.56-2.51,5.32-3.33,8.3-.81,2.98-1.3,6.04-1.47,9.16-.2,3.15-.04,6.37,.44,9.67-.04,.18-.03,.31-.02,.47,.01,.13,.06,.24,.14,.35-.05,.17-.08,.34-.11,.53l.11,.16c.66,4.66,1.92,9.29,3.79,13.87,1.9,4.6,4.39,9.13,7.5,13.63l.22,.31c1.55,2.25,3.49,4.38,5.8,6.41,2.27,2.03,5.04,3.95,8.3,5.79,3.14,1.94,6.52,3.65,10.14,5.19,3.65,1.58,7.5,2.92,11.6,4.03,7.97,2.34,16.09,4.26,24.44,5.74,8.35,1.48,16.5,2.07,25.13,2.76,7.88,.73,14.78,.87,21.12,1.09,6.34,.24,11.5-.39,16.33-.58,2.07-.06,3.65-.14,4.73-.2,1.08-.07,1.67-.14,1.79-.2,.09-.07,.36-.61,.82-1.6,.46-.99,1.1-2.4,1.98-4.18,1.82-4.57,4.28-9.08,6.3-15.14,2-6.05,4.45-12.33,6.72-19.76,2.39-8.58,4.45-16.88,6.03-25.21,1.58-8.32,2.66-16.54,3.24-24.63,.4-4.22,.55-8.26,.43-12.18-.14-3.91-.54-7.67-1.22-11.27-.6-3.66-1.44-6.98-2.54-9.91-1.13-2.92-2.46-5.5-4.01-7.75l-.22-.32c-3.2-4.43-6.59-8.34-10.16-11.78-3.56-3.41-7.34-6.24-11.29-8.48l-1.46-.79c-3.05-1.53-6-2.74-8.98-3.66-2.96-.89-5.97-1.5-9.04-1.79-3.08-.3-6.05-.27-8.93,.04-2.87,.33-5.69,1-8.46,1.99-1.82,.66-3.55,1.41-5.22,2.26-1.67,.84-3.23,1.76-4.67,2.75-3.28,2.26-6.1,4.94-8.49,8.01"/><path class="cls-3" d="M89.56,242.39c-2.39,3.08-4.44,6.57-6.13,10.47-2.13,5.24-3.42,10.73-3.89,16.5-.48,5.75-.09,11.74,1.2,17.95-5.47-3.33-10.96-5.8-16.45-7.42-5.52-1.64-11.03-2.43-16.56-2.38-4.26,.21-8.27,.91-12.05,2.08-3.79,1.19-7.33,2.91-10.58,5.16-1.42,.98-2.84,2.12-4.22,3.38-1.4,1.27-2.74,2.63-3.97,4.08-1.82,2.18-3.46,4.55-4.85,7.09-1.41,2.56-2.51,5.32-3.33,8.3-.81,2.98-1.3,6.04-1.47,9.16-.2,3.15-.04,6.37,.44,9.67-.04,.18-.03,.31-.02,.47,.01,.13,.06,.24,.14,.35-.05,.17-.08,.34-.11,.53l.11,.16c.66,4.66,1.92,9.29,3.79,13.87,1.9,4.6,4.39,9.13,7.5,13.63l.22,.31c1.55,2.25,3.49,4.38,5.8,6.41,2.27,2.03,5.04,3.95,8.3,5.79,3.14,1.94,6.52,3.65,10.14,5.19,3.65,1.58,7.5,2.92,11.6,4.03,7.97,2.34,16.09,4.26,24.44,5.74,8.35,1.48,16.5,2.07,25.13,2.76,7.88,.73,14.78,.87,21.12,1.09,6.34,.24,11.5-.39,16.33-.58,2.07-.06,3.65-.14,4.73-.2,1.08-.07,1.67-.14,1.79-.2,.09-.07,.36-.61,.82-1.6,.46-.99,1.1-2.4,1.98-4.18,1.82-4.57,4.28-9.08,6.3-15.14,2-6.05,4.45-12.33,6.72-19.76,2.39-8.58,4.45-16.88,6.03-25.21,1.58-8.32,2.66-16.54,3.24-24.63,.4-4.22,.55-8.26,.43-12.18-.14-3.91-.54-7.67-1.22-11.27-.6-3.66-1.44-6.98-2.54-9.91-1.13-2.92-2.46-5.5-4.01-7.75l-.22-.32c-3.2-4.43-6.59-8.34-10.16-11.78-3.56-3.41-7.34-6.24-11.29-8.48l-1.46-.79c-3.05-1.53-6-2.74-8.98-3.66-2.96-.89-5.97-1.5-9.04-1.79-3.08-.3-6.05-.27-8.93,.04-2.87,.33-5.69,1-8.46,1.99-1.82,.66-3.55,1.41-5.22,2.26-1.67,.84-3.23,1.76-4.67,2.75-3.28,2.26-6.1,4.94-8.49,8.01"/></svg>