<svg xmlns="http://www.w3.org/2000/svg" width="86.81" height="58.38" viewBox="0 0 86.81 58.38"><rect x="1.25" y="19.46" width="14.51" height="35.88" fill="none" stroke="#2291ef" stroke-linecap="round" stroke-linejoin="round" stroke-width="2.5"/><path d="M32.93,39.17H61.39c4.65,0,5.31-1.66,5.54-4.87s-3.44-4.76-6.87-4.76H43.56s-4.21-6.42-20.82-6.42h-7" fill="none" stroke="#2291ef" stroke-linecap="round" stroke-linejoin="round" stroke-width="2.5"/><path d="M15.76,45.27S25.84,54.35,33.26,56a45.46,45.46,0,0,0,20.15,0c5-1.33,26.81-14.29,30.35-17.61s1.37-7.09-2.32-8.31S73.19,31.14,66.94,35" fill="none" stroke="#2291ef" stroke-linecap="round" stroke-linejoin="round" stroke-width="2.5"/><path d="M72.65,5.15a8.49,8.49,0,0,0-2.14-2.74c-1.67-1.53-5.75-1.87-7.62,1s-.8,6.66.6,8.68c1.8,2.61,9.16,8.29,9.16,8.29S80,14.71,81.8,12.1c1.4-2,2.48-5.81.6-8.68s-5.94-2.54-7.62-1A8.35,8.35,0,0,0,72.65,5.15Z" fill="none" stroke="#2291ef" stroke-linecap="round" stroke-linejoin="round" stroke-width="2.5"/></svg>