<svg xmlns="http://www.w3.org/2000/svg" width="51.33" height="86.75" viewBox="0 0 51.33 86.75"><path d="M32.24,1.25s-6.65.64-6.67,7.1" fill="none" stroke="#e60278" stroke-linecap="round" stroke-linejoin="round" stroke-width="2.5"/><path d="M6.61,33.53V27.06c0-10.21,7.29-18.71,19-18.71s19,10.12,19,18.81v6.07" fill="none" stroke="#e60278" stroke-linecap="round" stroke-linejoin="round" stroke-width="2.5"/><line x1="1.25" y1="56.89" x2="47.75" y2="31.82" fill="none" stroke="#e60278" stroke-linecap="round" stroke-linejoin="round" stroke-width="2.5"/><line x1="3.27" y1="31.82" x2="25.14" y2="44.01" fill="none" stroke="#e60278" stroke-linecap="round" stroke-linejoin="round" stroke-width="2.5"/><path d="M6.61,28.58s-4.85,1-4.85,4.85-.51,18.1-.51,27.4S7.32,85.5,26.12,85.5s24-18.6,24-24.67v-26c0-3.07-1.82-5.59-4.55-5.9" fill="none" stroke="#e60278" stroke-linecap="round" stroke-linejoin="round" stroke-width="2.5"/><line x1="6.61" y1="75.08" x2="44.62" y2="75.08" fill="none" stroke="#e60278" stroke-linecap="round" stroke-linejoin="round" stroke-width="2.5"/><circle cx="16.84" cy="26.37" r="1.86"/><circle cx="34.05" cy="26.56" r="2.06"/><circle cx="25.57" cy="36.04" r="4.13" fill="none" stroke="#e60278" stroke-linecap="round" stroke-linejoin="round" stroke-width="2.5"/><circle cx="25.57" cy="36.04" r="1.18"/></svg>