<svg xmlns="http://www.w3.org/2000/svg" width="75.98" height="88.04" viewBox="0 0 75.98 88.04"><path d="M30.91,24.14s1.91,5.1,7.21,5.1,7.34-5.1,7.34-5.1" fill="none" stroke="#56c44a" stroke-linecap="round" stroke-linejoin="round" stroke-width="2.5"/><path d="M10.21,44.8S26,44.22,34.84,52.33h6.4s8.3-8.11,24.24-7.54V82.11s-13.94-1-24.34,4.68H34.46a56.49,56.49,0,0,0-24.25-5.06Z" fill="none" stroke="#56c44a" stroke-linecap="round" stroke-linejoin="round" stroke-width="2.5"/><rect x="34.84" y="52.33" width="6.3" height="34.46" fill="none" stroke="#56c44a" stroke-linecap="round" stroke-linejoin="round" stroke-width="2.5"/><circle cx="37.85" cy="18.13" r="16.88" fill="none" stroke="#56c44a" stroke-linecap="round" stroke-linejoin="round" stroke-width="2.5"/><path d="M65.68,54.1a36.55,36.55,0,0,1,9,24.14h-9" fill="none" stroke="#56c44a" stroke-linecap="round" stroke-linejoin="round" stroke-width="2.5"/><path d="M21.23,45.54a36.78,36.78,0,0,1,33.22-.15" fill="none" stroke="#56c44a" stroke-linecap="round" stroke-linejoin="round" stroke-width="2.5"/><path d="M10.21,78.24h-9a36.63,36.63,0,0,1,9-24" fill="none" stroke="#56c44a" stroke-linecap="round" stroke-linejoin="round" stroke-width="2.5"/></svg>